<svg width="35" height="35" viewBox="0 0 35 35" fill="none" xmlns="http://www.w3.org/2000/svg">
<path fill-rule="evenodd" clip-rule="evenodd" d="M17.5292 0C27.1746 0.0160417 35 7.85021 35 17.5C35 27.1585 27.16 35 17.5 35C7.84146 35 0 27.1585 0 17.5C0 7.85021 7.82688 0.0160417 17.4723 0H17.5292ZM22.9163 23.3333H12.0852C13.0171 29.5546 15.3548 33.5417 17.5 33.5417C19.6467 33.5417 21.9844 29.5546 22.9163 23.3333ZM32.4465 23.3333H24.3921C23.7708 27.6865 22.4656 31.2113 20.7681 33.2077C26.1188 32.0994 30.4967 28.3223 32.4465 23.3333ZM10.6094 23.3333H2.55354C4.50479 28.3223 8.88271 32.0994 14.2333 33.2077C12.5358 31.2113 11.2306 27.6865 10.6094 23.3333ZM10.43 13.125H2.065C1.58229 14.8254 0.984375 18.0673 2.065 21.875H10.43C10.1558 19.2296 10.1165 16.151 10.43 13.125ZM23.1044 13.125H11.8971C11.6127 15.75 11.569 18.8519 11.8971 21.875H23.1044C23.3902 19.234 23.431 16.1438 23.1044 13.125ZM32.9365 13.125H24.5715C24.6619 13.9883 25.0206 17.5277 24.5715 21.875H32.9365C34.0171 18.0658 33.4192 14.824 32.9365 13.125ZM14.2333 1.79229C8.88271 2.90062 4.50479 6.67771 2.55354 11.6667H10.6094C11.2306 7.31354 12.5358 3.78729 14.2333 1.79229ZM22.9163 11.6667C21.9844 5.44542 19.6467 1.45833 17.5 1.45833C15.3548 1.45833 13.0171 5.44542 12.0852 11.6667H22.9163ZM20.7681 1.79229C22.4656 3.78729 23.7708 7.31354 24.3921 11.6667H32.4465C30.4967 6.67771 26.1188 2.90062 20.7681 1.79229Z" fill="white"/>
</svg>
