<svg width="48" height="48" viewBox="0 0 48 48" fill="none" xmlns="http://www.w3.org/2000/svg">
<circle cx="24" cy="24" r="24" fill="white"/>
<path fill-rule="evenodd" clip-rule="evenodd" d="M28.8162 29.7C26.7125 31.5962 23.9275 32.75 20.875 32.75C14.3212 32.75 9 27.4287 9 20.875C9 14.3212 14.3212 9 20.875 9C27.4287 9 32.75 14.3212 32.75 20.875C32.75 23.9275 31.5962 26.7125 29.7 28.8162L39 38.1162L38.1162 39L28.8162 29.7ZM20.875 10.25C26.7388 10.25 31.5 15.0113 31.5 20.875C31.5 26.7388 26.7388 31.5 20.875 31.5C15.0113 31.5 10.25 26.7388 10.25 20.875C10.25 15.0113 15.0113 10.25 20.875 10.25Z" fill="#646464"/>
</svg>
